<svg xmlns="http://www.w3.org/2000/svg" viewBox="0 0 1500 263"><defs><style>.cls-1{fill:#f2f2f2;}.cls-2{fill:#fff;}.cls-3{fill:#06f;}.cls-4{fill:#ff1d25;}</style></defs><g><path class="cls-1" d="M39,234.09H59.76V110.43H27.07v26.1H0V84.82H151.71v51.71H124.64v-26.1H91.71V234.09h21V258H39Z"/><path class="cls-1" d="M193.54,202.14v12.93c0,11.22,14.15,17.8,30.49,17.8,17.57,0,30-7.56,30-21.46,0-17.56-19.75-23.17-39.75-31-23.18-8.78-45.86-19.27-45.86-50.25,0-34.87,28.29-48.29,58.05-48.29,27.32,0,54.88,10.49,54.88,30.49v22.68h-29V123.35c0-8.78-12.93-13.41-25.86-13.41-14.15,0-25.85,5.85-25.85,19,0,15.85,16.1,21.46,34.15,28.29,25.85,9.27,51.7,19.51,51.7,52,0,35.37-29.75,51.71-62.44,51.71-28.78,0-59.51-12.93-59.51-39V202.14Z"/><path class="cls-1" d="M394.4,81.89c31,0,67.81,12.2,67.81,34.15v23.9h-29V127.26c0-12-18.78-18.05-37.31-18.05-36.84,0-59.76,23.41-59.76,60.24,0,37.08,22.92,64.15,61.22,64.15,13.9,0,39.76-3.65,39.76-18V197H405.62V173.11h60.49v52.2c0,26.34-46.34,35.61-71.95,35.61-53.18,0-91.23-38.54-91.23-90.25C302.93,119.21,340.5,81.89,394.4,81.89Z"/><path class="cls-2" d="M30.83,40V56.1h-5.3V40C18.61,47.94,9,54,.43,56.16V50.62c6.79-1.73,15.74-7,21.16-12.52H4.12V14.67H25.53V10.08H.49V5.6h25V1.37h5.3V5.6h25v4.48h-25v4.59H52.3V38.1H34.71c5.42,5.54,14.43,10.79,21.16,12.52v5.54C47.29,54,37.75,47.94,30.83,40ZM25.53,18.6H9.25v6H25.53Zm0,9.48H9.25v6H25.53ZM47.05,18.6H30.83v6H47.05Zm0,9.48H30.83v6H47.05Z"/><path class="cls-2" d="M93.9,29.27C89.54,41.32,79.47,52.94,66.23,55.92V50.26C79.05,47,89.31,33.09,90.8,20H66.17v-5.3H91V1.49h5.49V14.73H121.2V20H96.7c1.85,12.7,12.46,26.71,24.62,30.35V56C108.86,52.88,98.55,41.44,93.9,29.27Z"/><path class="cls-2" d="M131.73,54.85V49.78h25.64V35.24H137v-5h20.33V16.87H142.88c-3.1,6-7.21,11.33-11.56,14.43V24.38c4.41-4.11,9.18-12.28,11.21-21.28h5.18a41,41,0,0,1-2.56,8.71h12.22V1.13h5.25V11.81h22.83v5.06H162.62V30.23h20.15v5H162.62V49.78H187v5.07Z"/><path class="cls-2" d="M221.48,53.9a63.16,63.16,0,0,1-8.59-.84V47.7a46.12,46.12,0,0,0,8.29.95c5.31,0,7.39-2.62,7.39-18.9,0-11.86-1.31-13.59-6.26-13.59h-10a171.65,171.65,0,0,1-8.59,37.14h-5.66a155.75,155.75,0,0,0,9.06-37.14h-9.42V11h10c.23-2.8.41-5.55.53-8.29h5.25c-.12,2.74-.36,5.49-.66,8.29H223c8.82,0,10.79,3.1,10.79,17.89C233.82,51.33,229.94,53.9,221.48,53.9ZM237.69,8.11V.42h3.64V8.11Zm7.58,38.39c0-24.68-1.49-31.65-5-35.41h5.9c3.1,4.71,4.41,12.28,4.41,35.41Zm-.18-38.39V.42h3.63V8.11Z"/><path class="cls-2" d="M289.67,56c-11.62,0-15.5-2.62-18.54-6.61l-9.78,7.45V51.09l6.86-5.6V30.11h-7v-5H273V43.94c1.61,4.29,5.54,7.1,16,7.1h27.36V56ZM262.84,7.63v-6L274.11,10v6.2Zm36.49,20.69c2.8,7.51,8.65,11.45,16.22,13.83v5.73c-8.94-2.51-16-6.8-19.85-14.73-3.4,8-10.26,12.28-19,14.73V42.15c7.33-2.32,12.81-5.9,15-13.83h-15V23.55h15.91c.12-1.31.12-2.62.12-4.05V15.8H277.93V10.91h8.46c-1.25-2.86-3.16-6.62-4.59-9.3h5.61a103.62,103.62,0,0,1,4.71,9.3h7.45l4.17-9.3h5.79l-4.41,9.3h9.59V15.8H298.14v3.7c0,1.43-.12,2.74-.18,4.05h18.3v4.77Z"/><path class="cls-2" d="M352.9,54.85c-11.63,0-18.54-3.28-18.54-10.49,0-4.11,3.39-9.48,12.22-9.48,8.23,0,12.64,4.65,12.64,11a11.64,11.64,0,0,1-.66,3.87c10.44-1.61,14.07-7.87,14.07-14.6,0-6.32-5.07-11.09-14.78-11.09a37.57,37.57,0,0,0-21.47,6.85l-9.78,6.5V30.7L361,9.42l-30.77.18V4.47h41V9.06L353.2,19.74l-3.94,1.78a40.68,40.68,0,0,1,11-1.85c11.39,0,18.24,6.09,18.24,15.39C378.47,45.19,371.86,54.85,352.9,54.85ZM346.16,39c-5.66,0-7,3.52-7,5.25,0,4.89,5.54,6,13.35,6a6.77,6.77,0,0,0,1.13-.06,5.92,5.92,0,0,0,.78-3.28C354.39,41.67,350.87,39,346.16,39Z"/><path class="cls-2" d="M387,11.15V6h39.35v.48a8.78,8.78,0,0,0,1.43,4.71Zm48.83,10.2c-3.28,21.82-16.75,31-46.26,32.43V48.53c28.79-1.13,40.54-10.79,41.55-34.46a8.14,8.14,0,0,0,3.82.89,8,8,0,0,0,1.61-.11C436.37,17.17,436.13,19.32,435.83,21.35Zm-.59-9.13A6.14,6.14,0,0,1,429,6.14a6.21,6.21,0,0,1,12.41,0A6.14,6.14,0,0,1,435.24,12.22Zm0-9.24A3.23,3.23,0,0,0,432,6.14a3.33,3.33,0,0,0,3.22,3.22,3.39,3.39,0,0,0,3.28-3.22A3.29,3.29,0,0,0,435.24,3Z"/><path class="cls-2" d="M452.93,52.65V6.26h47.16V52.65Zm41.91-41.38H458.17V47.64h36.67Z"/><path class="cls-2" d="M530.25,10.79a32.59,32.59,0,0,1-16.88,18.6V23.73a28.7,28.7,0,0,0,12.88-18h27.31v5.07ZM517.07,54V48.77c29.39-.78,40.48-12.88,40.72-37.62h5.6C563.1,39.59,549.15,53.24,517.07,54ZM557.31,8.35V.12h3.58V8.35Zm6.92,0V.12h3.64V8.35Z"/><path class="cls-2" d="M578.53,10.55V5.37h50.8v5.18Zm50.44,17c-2.32,20.62-16.75,26.35-47.69,26.35V48.71c28.85,0,41.85-5.31,42.09-23.07H578.53V20.39h50.8C629.33,22.54,629.15,26,629,27.55Z"/><path class="cls-2" d="M666,51.39H641.29V46.27h24.27c15.08,0,22.6.83,26.65,2v5.31C688.21,52.47,681,51.39,666,51.39ZM642.25,11.27V6.2h49.06v5.07Zm1.19,19.2V25.4h46.68v5.07Z"/><path class="cls-2" d="M722.33,10.79H704.5V5.48h17.88c7.1,0,9.9.48,13,1.44v5.6C732.94,11.39,729.12,10.79,722.33,10.79ZM704.56,53.54V48.17c32,0,45.31-8.94,45.31-43.22h5.6C755.47,42.81,739.56,53.54,704.56,53.54Z"/><path class="cls-2" d="M783.92,10.79A32.59,32.59,0,0,1,767,29.39V23.73a28.7,28.7,0,0,0,12.88-18h27.31v5.07ZM770.74,54V48.77c29.39-.78,40.48-12.88,40.72-37.62h5.61C816.77,39.59,802.82,53.24,770.74,54ZM811,8.35V.12h3.58V8.35Zm6.92,0V.12h3.64V8.35Z"/><path class="cls-2" d="M829.15,52.65V47.34h55.21v5.31ZM833,10.37V5H881v5.36Zm2.5,20.33V25.4h42.69v5.3Z"/><path class="cls-2" d="M895.09,52.94V3.64h16.22v49.3ZM906.78,8.7h-7V24.86h7Zm0,21h-7V48.06h7Zm26.35,5.13.12,3.34V56.52h-5.37V38.1l.06-3.4c-4.17,7.81-9.6,13.95-15.32,17.41V45.73a45.27,45.27,0,0,0,13.65-17.47H912.62v-5h15.26V14.19H914.29V9.24h13.59V1.31h5.37V9.18h14.48v5H933.25v9.12H949.4v5H934.68a44.59,44.59,0,0,0,14.84,18.07v6.26C943.38,49.19,937.6,42.87,933.13,34.82Z"/><path class="cls-2" d="M988.65,54.79V49.55c11.62-.78,19.32-8.53,19.32-20,0-13.29-6.62-20.33-17.53-21.28-3,31.36-7.22,43.82-16.82,43.82-5.66,0-13.35-5.67-13.35-20.75,0-16.22,10.91-28,27.25-28,16.81,0,25.75,10.25,25.75,26.17C1013.27,43,1004.63,53.42,988.65,54.79ZM965.28,31.24c0,10.55,4.77,15.38,8.34,15.38,5.49,0,9.13-10.13,11.57-38.39C972.67,9.36,965.28,19,965.28,31.24Z"/><path class="cls-2" d="M1024.45,54.85V49.78h25.63V35.24h-20.33v-5h20.33V16.87H1035.6c-3.1,6-7.22,11.33-11.57,14.43V24.38c4.41-4.11,9.18-12.28,11.21-21.28h5.19a41.09,41.09,0,0,1-2.57,8.71h12.22V1.13h5.25V11.81h22.84v5.06h-22.84V30.23h20.15v5h-20.15V49.78h24.39v5.07Z"/><path class="cls-2" d="M1101.57,13.24V21.4h12.88c0,9-.53,21.83-1.79,29-.83,4.47-2.5,5.84-7.09,5.84h-4.89V51.16h4c1.9,0,3-.72,3.39-3,1-5.6,1.31-13.59,1.43-21.76h-8.1c-.6,10.5-3.11,21.82-6.44,29.16h-5.67c4.83-9.19,7.34-24.33,7.34-34.29v-8h-6v-5h10.86V1.49h5.24v6.8h11v5Zm30,32.79c-4,4.47-9.42,7.93-16.33,10.67V50.92a33.57,33.57,0,0,0,13.29-9.07,60.8,60.8,0,0,1-7-15.44l-.18-1a25.51,25.51,0,0,1-5.78,6.44V24.56c4.23-4.47,8-14.72,9.3-23.07H1130a61.43,61.43,0,0,1-1.61,7.87h17.12v5.13h-3.34c-.72,11.74-3,20.63-7.4,27.36a34.26,34.26,0,0,0,10.74,8.77v5.9A39,39,0,0,1,1131.62,46Zm-4.83-31.54a47.1,47.1,0,0,1-2.26,5.36,50.68,50.68,0,0,0,7,17.83c3.34-5.66,5.19-13.18,5.79-23.19Z"/><path class="cls-2" d="M1184.28,56c-11.63,0-15.51-2.62-18.54-6.61L1156,56.82V51.09l6.85-5.6V30.11h-7v-5h11.86V43.94c1.61,4.29,5.55,7.1,16,7.1H1211V56ZM1157.45,7.63v-6L1168.72,10v6.2Zm36.49,20.69c2.8,7.51,8.64,11.45,16.21,13.83v5.73c-8.94-2.51-16-6.8-19.85-14.73-3.4,8-10.26,12.28-19,14.73V42.15c7.33-2.32,12.82-5.9,15-13.83h-15V23.55h15.92c.12-1.31.12-2.62.12-4.05V15.8h-14.79V10.91H1181c-1.25-2.86-3.16-6.62-4.59-9.3h5.6a103.62,103.62,0,0,1,4.71,9.3h7.45l4.18-9.3h5.78l-4.41,9.3h9.6V15.8h-16.58v3.7c0,1.43-.12,2.74-.18,4.05h18.31v4.77Z"/><path class="cls-3" d="M1488.62,4.24V71.17h-40.55l-5.69-15.42H1356.3l-2.49,50C1370.88,94.86,1388,90,1409.3,90c54.77,0,90.7,34.59,90.7,83.85,0,50.76-37,89.11-103.15,89.11-55.49,0-96.4-26.7-104.58-72.19l63-4.14c5.34,14.67,16.36,22.19,32,22.19,21.7,0,33.8-12.79,33.8-34.22,0-21.06-12.45-33.09-32-33.09-12.8,0-23.47,4.89-33.08,15L1303.66,137l7.11-132.73Z"/><path class="cls-2" d="M1228.52,44.07a5.12,5.12,0,0,1,2.65.76,4.87,4.87,0,0,1,2.5,4.42,5.1,5.1,0,0,1-1.31,3.47,5.23,5.23,0,0,1-6.29,1.13,4.92,4.92,0,0,1-2.77-4.63,4.85,4.85,0,0,1,1.64-3.75A5.09,5.09,0,0,1,1228.52,44.07Zm4.74-36-1.54,29.26a3.29,3.29,0,0,1-6.09,1.49,3.63,3.63,0,0,1-.35-1.49l-1.57-29.26V7.85a3.41,3.41,0,0,1,2-3.2,5.6,5.6,0,0,1,2.83-.73,4.8,4.8,0,0,1,4.1,1.81A3.39,3.39,0,0,1,1233.26,8.11Z"/><path class="cls-2" d="M1258.05,44.07a5.09,5.09,0,0,1,2.65.76,4.86,4.86,0,0,1,2.5,4.42,5.14,5.14,0,0,1-5.21,5.19,5,5,0,0,1-2.38-.59,4.9,4.9,0,0,1-2.77-4.63,4.84,4.84,0,0,1,1.63-3.75A5.11,5.11,0,0,1,1258.05,44.07Zm4.75-36-1.55,29.26a3.29,3.29,0,0,1-6.08,1.49,3.63,3.63,0,0,1-.35-1.49l-1.57-29.26V7.85a3.41,3.41,0,0,1,2-3.2,5.54,5.54,0,0,1,2.82-.73,4.82,4.82,0,0,1,4.11,1.81A3.44,3.44,0,0,1,1262.8,8.11Z"/><path class="cls-4" d="M616.8,88.88v40.67h-16v88.09h39.93v-27.2h40.67v67.88H520V217.64H535.2V129.55H520V88.88Z"/><path class="cls-4" d="M792.9,88.88v40.67H777.18v88.09H792.9v40.68H695.82V217.64h15.73V129.55H695.82V88.88Z"/><path class="cls-4" d="M897.23,88.88v40.67H883l25,72.12h.5l26.2-72.12h-14V88.88h68.37v40.67H976.59L925.68,259.82H872.77l-53.9-130.27H806.14V88.88Z"/><path class="cls-4" d="M1165.64,88.88V143h-44.42V129.55h-38.43v26h33.43v34.43h-33.43v27.7h38.43V204.17h44.42v54.15H1003.93V217.64h13.22V129.55h-13.22V88.88Z"/><path class="cls-4" d="M1259.11,213.9v44.42h-60.64V213.9Zm-1-125v47.66l-8.73,53.65H1208.2l-8.73-52.65V88.88Z"/></g></svg>