<svg xmlns="http://www.w3.org/2000/svg" viewBox="0 0 994.351 172.99">
  <title>logo</title>
  <g>
    <path d="M28.148,155.267h13.7V73.581H20.253V90.82H2.369V56.663H102.584V90.82H84.7V73.581H62.949v81.686H76.806v15.79H28.148Z" style="fill: #f2f2f2"/>
    <path d="M130.215,134.161V142.7c0,7.411,9.345,11.761,20.14,11.761,11.6,0,19.817-4.994,19.817-14.178,0-11.6-13.05-15.306-26.262-20.462-15.306-5.8-30.29-12.728-30.29-33.19,0-23.04,18.69-31.9,38.346-31.9,18.045,0,36.252,6.928,36.252,20.14V89.854H169.044V82.12c0-5.8-8.539-8.862-17.078-8.862-9.345,0-17.078,3.867-17.078,12.568,0,10.472,10.633,14.178,22.556,18.689,17.078,6.123,34.157,12.889,34.157,34.318,0,23.362-19.656,34.157-41.246,34.157-19.012,0-39.313-8.539-39.313-25.779v-13.05Z" style="fill: #f2f2f2"/>
    <path d="M262.893,54.73c20.461,0,44.79,8.056,44.79,22.556v15.79H288.51V84.7c0-7.895-12.406-11.923-24.651-11.923-24.329,0-39.474,15.467-39.474,39.8,0,24.49,15.145,42.374,40.441,42.374,9.184,0,26.262-2.417,26.262-11.923V130.777H270.3V114.988h39.957v34.479c0,17.4-30.612,23.523-47.53,23.523-35.123,0-60.257-25.456-60.257-59.614C202.474,79.381,227.286,54.73,262.893,54.73Z" style="fill: #f2f2f2"/>
  </g>
  <g>
    <path d="M453.435,171.877H346.872v-26.8h10.061V86.724H346.872v-26.8h63.986v26.8H400.234v58.351h26.479V127.127h26.722Z" style="fill: #ff1d25"/>
    <path d="M526.814,171.877H462.99v-26.8h10.3V86.724h-10.3v-26.8h63.824v26.8h-10.22v58.351h10.22Z" style="fill: #ff1d25"/>
    <path d="M614.778,172.843H579.929L544.192,86.724H535.9v-26.8h60.2v26.8h-9.5l16.661,47.727,17.465-47.727h-9.175v-26.8h45.152v26.8h-8.29Z" style="fill: #ff1d25"/>
    <path d="M773.324,171.877h-106.8v-26.8h8.692V86.724h-8.854v-26.8H773.324V95.738H743.947V86.724H718.514v17.223h22.133v22.778H718.514v18.35h25.433v-9.014h29.377Z" style="fill: #ff1d25"/>
    <path d="M835.18,171.877H795.018v-29.3H835.18Zm-6.439-44.991H801.3l-5.635-34.85V59.922h38.875v31.47Z" style="fill: #ff1d25"/>
  </g>
  <g>
    <path d="M20.085,27.063V37.7h-3.5V27.063C12.012,32.3,5.671,36.318,0,37.736V34.073A33.915,33.915,0,0,0,13.981,25.8H2.442V10.325H16.581V7.293H.04V4.339H16.581v-2.8h3.5v2.8h16.5V7.293h-16.5v3.032H34.263V25.8H22.646a34.16,34.16,0,0,0,13.98,8.27v3.663C30.955,36.318,24.654,32.3,20.085,27.063Zm-3.5-14.139H5.829v3.939H16.581Zm0,6.263H5.829v3.938H16.581ZM30.8,12.924H20.085v3.939H30.8Zm0,6.263H20.085v3.938H30.8Z" style="fill: #fff"/>
    <path d="M61.742,19.974c-2.875,7.955-9.531,15.635-18.273,17.6V33.837C51.936,31.671,58.71,22.5,59.694,13.87H43.429v-3.5H59.852V1.622h3.623v8.743H79.78v3.5H63.593c1.221,8.388,8.231,17.643,16.265,20.046v3.741C71.627,35.57,64.814,28.008,61.742,19.974Z" style="fill: #fff"/>
    <path d="M86.736,36.869V33.522H103.67V23.913H90.241V20.6H103.67V11.782H94.1a27.1,27.1,0,0,1-7.641,9.531V16.745c2.915-2.718,6.065-8.113,7.4-14.06h3.427A27.143,27.143,0,0,1,95.6,8.435h8.073V1.385h3.466v7.05H122.22v3.347H107.136V20.6h13.312v3.309H107.136v9.609h16.108v3.347Z" style="fill: #fff"/>
    <path d="M146.016,36.239a42,42,0,0,1-5.671-.551V32.144a30.025,30.025,0,0,0,5.474.629c3.505,0,4.884-1.732,4.884-12.484,0-7.837-.867-8.979-4.136-8.979h-6.616a113.213,113.213,0,0,1-5.671,24.535h-3.741a102.916,102.916,0,0,0,5.986-24.535H130.3V7.923h6.577c.158-1.851.276-3.663.355-5.474H140.7c-.079,1.811-.237,3.623-.434,5.474h6.774c5.829,0,7.128,2.048,7.128,11.815C154.168,34.546,151.608,36.239,146.016,36.239ZM156.729,5.993V.913h2.4v5.08Zm5,25.363c0-16.3-.984-20.913-3.308-23.394h3.9c2.048,3.112,2.914,8.113,2.914,23.394Zm-.118-25.363V.913h2.4v5.08Z" style="fill: #fff"/>
    <path d="M191.063,37.618c-7.679,0-10.239-1.733-12.248-4.372l-6.458,4.923V34.388l4.529-3.7V20.525h-4.647V17.217h7.837V29.662c1.063,2.836,3.662,4.687,10.554,4.687h18.077v3.269ZM173.341,5.678V1.7l7.444,5.553v4.1Zm24.1,13.666c1.85,4.962,5.71,7.561,10.712,9.137v3.781c-5.907-1.655-10.555-4.49-13.114-9.728-2.246,5.278-6.774,8.113-12.564,9.728V28.481c4.844-1.536,8.467-3.9,9.925-9.137h-9.925V16.193h10.515c.079-.866.079-1.733.079-2.678V11.074h-9.767V7.844H188.9c-.827-1.89-2.087-4.371-3.032-6.144h3.7a67.893,67.893,0,0,1,3.111,6.144H197.6L200.358,1.7h3.82l-2.914,6.144h6.34v3.23H196.656v2.441c0,.945-.079,1.812-.118,2.678h12.09v3.151Z" style="fill: #fff"/>
    <path d="M232.826,36.869c-7.68,0-12.248-2.166-12.248-6.931,0-2.717,2.245-6.262,8.074-6.262,5.434,0,8.349,3.072,8.349,7.286a7.778,7.778,0,0,1-.433,2.56c6.892-1.064,9.294-5.2,9.294-9.649,0-4.175-3.347-7.325-9.767-7.325a24.8,24.8,0,0,0-14.178,4.529l-6.459,4.293V20.919l22.685-14.06-20.322.119V3.591h27.056V6.623l-11.854,7.05-2.6,1.181a26.808,26.808,0,0,1,7.246-1.221c7.522,0,12.052,4.017,12.052,10.161C249.722,30.489,245.35,36.869,232.826,36.869Zm-4.45-10.475c-3.741,0-4.647,2.323-4.647,3.465,0,3.229,3.663,3.978,8.822,3.978a4.452,4.452,0,0,0,.748-.04,3.927,3.927,0,0,0,.512-2.166C233.811,28.166,231.487,26.394,228.376,26.394Z" style="fill: #fff"/>
    <path d="M255.354,8V4.575h25.993v.316A5.78,5.78,0,0,0,282.292,8Zm32.255,6.735c-2.166,14.414-11.067,20.479-30.561,21.425V32.7c19.022-.749,26.78-7.129,27.45-22.763a5.41,5.41,0,0,0,2.52.59,4.831,4.831,0,0,0,1.064-.079C287.963,11.979,287.806,13.4,287.609,14.736Zm-.394-6.026a4.051,4.051,0,0,1-4.1-4.017,4.1,4.1,0,0,1,8.192,0A4.051,4.051,0,0,1,287.215,8.71Zm0-6.1a2.136,2.136,0,0,0-2.127,2.087,2.2,2.2,0,0,0,2.127,2.127,2.233,2.233,0,0,0,2.166-2.127A2.17,2.17,0,0,0,287.215,2.606Z" style="fill: #fff"/>
    <path d="M298.9,35.412V4.772h31.152v30.64ZM326.587,8.081h-24.22V32.1h24.22Z" style="fill: #fff"/>
    <path d="M349.974,7.765a21.546,21.546,0,0,1-11.145,12.288V16.312a18.961,18.961,0,0,0,8.506-11.894h18.038V7.765Zm-8.7,28.514V32.853c19.415-.513,26.741-8.507,26.9-24.852h3.7C371.674,26.787,362.458,35.806,341.271,36.279ZM367.854,6.151V.716h2.363V6.151Zm4.568,0V.716h2.4V6.151Z" style="fill: #fff"/>
    <path d="M381.872,7.608V4.182h33.554V7.608Zm33.317,11.224c-1.535,13.626-11.066,17.407-31.506,17.407V32.813c19.062,0,27.647-3.505,27.805-15.241H381.872V14.106h33.554C415.426,15.524,415.308,17.808,415.189,18.832Z" style="fill: #fff"/>
    <path d="M439.671,34.585H423.327V31.2h16.029c9.964,0,14.926.552,17.6,1.3V36C454.321,35.294,449.556,34.585,439.671,34.585Zm-15.714-26.5V4.733h32.412V8.081Zm.788,12.681V17.414h30.837v3.348Z" style="fill: #fff"/>
    <path d="M476.854,7.765H465.078V4.26h11.815c4.687,0,6.537.315,8.586.946v3.7C483.863,8.159,481.343,7.765,476.854,7.765ZM465.117,36V32.458c21.11,0,29.932-5.907,29.932-28.552h3.7C498.75,28.914,488.234,36,465.117,36Z" style="fill: #fff"/>
    <path d="M517.537,7.765a21.548,21.548,0,0,1-11.144,12.288V16.312A18.956,18.956,0,0,0,514.9,4.418h18.039V7.765Zm-8.7,28.514V32.853c19.416-.513,26.741-8.507,26.9-24.852h3.7C539.237,26.787,530.021,35.806,508.834,36.279ZM535.417,6.151V.716h2.363V6.151Zm4.569,0V.716h2.4V6.151Z" style="fill: #fff"/>
    <path d="M547.418,35.412v-3.5h36.469v3.5Zm2.56-27.922V3.945h31.664V7.49Zm1.654,13.429v-3.5h28.2v3.5Z" style="fill: #fff"/>
    <path d="M590.973,35.609V3.04h10.713V35.609Zm7.719-29.222h-4.647V17.06h4.647Zm0,13.863h-4.647V32.38h4.647ZM616.1,23.637l.078,2.2v12.13h-3.544V25.8l.039-2.245c-2.757,5.159-6.341,9.215-10.121,11.5V30.844a29.887,29.887,0,0,0,9.018-11.539h-9.018V16.036h10.082V10.01h-8.98V6.741h8.98V1.5h3.544V6.7h9.57V10.01h-9.57v6.026h10.673v3.269h-9.728a29.445,29.445,0,0,0,9.807,11.933v4.135C622.873,33.128,619.053,28.954,616.1,23.637Z" style="fill: #fff"/>
    <path d="M652.773,36.83V33.364c7.68-.511,12.761-5.632,12.761-13.232,0-8.783-4.372-13.43-11.579-14.06-2.009,20.715-4.766,28.947-11.105,28.947-3.743,0-8.823-3.742-8.823-13.706,0-10.712,7.207-18.471,18-18.471,11.107,0,17.014,6.774,17.014,17.29C669.039,29.032,663.328,35.924,652.773,36.83ZM637.336,21.274c0,6.971,3.15,10.161,5.514,10.161,3.623,0,6.025-6.7,7.639-25.363C642.219,6.82,637.336,13.161,637.336,21.274Z" style="fill: #fff"/>
    <path d="M676.421,36.869V33.522h16.934V23.913H679.926V20.6h13.429V11.782h-9.57a27.1,27.1,0,0,1-7.639,9.531V16.745c2.914-2.718,6.064-8.113,7.4-14.06h3.426a27.2,27.2,0,0,1-1.694,5.75h8.073V1.385h3.466v7.05h15.084v3.347H696.821V20.6h13.312v3.309H696.821v9.609h16.108v3.347Z" style="fill: #fff"/>
    <path d="M727.367,9.38v5.4h8.507a136.4,136.4,0,0,1-1.181,19.141c-.551,2.953-1.654,3.859-4.687,3.859h-3.229V34.428h2.639a1.985,1.985,0,0,0,2.244-1.97,103.86,103.86,0,0,0,.945-14.375H727.25C726.855,25.015,725.2,32.5,723,37.342h-3.741c3.189-6.065,4.844-16.068,4.844-22.645V9.38h-3.978V6.111h7.168V1.622h3.466V6.111H738V9.38Zm19.85,21.661a28.11,28.11,0,0,1-10.791,7.049V34.27a22.151,22.151,0,0,0,8.782-5.986,40.088,40.088,0,0,1-4.647-10.2l-.119-.669a16.724,16.724,0,0,1-3.819,4.253v-4.8c2.8-2.954,5.316-9.728,6.144-15.241h3.386a41.891,41.891,0,0,1-1.063,5.2h11.3v3.387h-2.205c-.473,7.758-1.969,13.626-4.884,18.077a22.663,22.663,0,0,0,7.089,5.789v3.9A25.768,25.768,0,0,1,747.217,31.041Zm-3.191-20.834a31.741,31.741,0,0,1-1.5,3.544,33.49,33.49,0,0,0,4.648,11.776c2.205-3.741,3.426-8.7,3.819-15.32Z" style="fill: #fff"/>
    <path d="M782,37.618c-7.68,0-10.24-1.733-12.248-4.372l-6.459,4.923V34.388l4.529-3.7V20.525h-4.647V17.217h7.837V29.662c1.063,2.836,3.663,4.687,10.554,4.687h18.078v3.269ZM764.274,5.678V1.7l7.444,5.553v4.1Zm24.1,13.666c1.851,4.962,5.71,7.561,10.712,9.137v3.781c-5.907-1.655-10.555-4.49-13.114-9.728-2.246,5.278-6.775,8.113-12.564,9.728V28.481c4.844-1.536,8.468-3.9,9.925-9.137h-9.925V16.193h10.516c.078-.866.078-1.733.078-2.678V11.074h-9.767V7.844h5.593C779,5.954,777.743,3.473,776.8,1.7h3.7a67.893,67.893,0,0,1,3.111,6.144h4.923L791.291,1.7h3.82L792.2,7.844h6.34v3.23H787.589v2.441c0,.945-.078,1.812-.118,2.678h12.091v3.151Z" style="fill: #fff"/>
    <path d="M812.547,29.588a3.4,3.4,0,0,1,1.75.5,3.218,3.218,0,0,1,1.654,2.924,3.349,3.349,0,0,1-.865,2.288,3.468,3.468,0,0,1-4.154.75,3.244,3.244,0,0,1-1.828-3.057,3.212,3.212,0,0,1,1.078-2.481A3.369,3.369,0,0,1,812.547,29.588Zm3.135-23.752-1.019,19.329a2.171,2.171,0,0,1-4.019.981,2.339,2.339,0,0,1-.232-.981L809.374,5.836V5.664a2.259,2.259,0,0,1,1.288-2.116,3.721,3.721,0,0,1,1.866-.481,3.186,3.186,0,0,1,2.711,1.193A2.266,2.266,0,0,1,815.682,5.836Z" style="fill: #fff"/>
    <path d="M832.057,29.588a3.4,3.4,0,0,1,1.75.5,3.218,3.218,0,0,1,1.654,2.924A3.349,3.349,0,0,1,834.6,35.3a3.469,3.469,0,0,1-4.155.75,3.44,3.44,0,0,1-.75-5.538A3.37,3.37,0,0,1,832.057,29.588Zm3.134-23.752-1.018,19.329a2.172,2.172,0,0,1-4.02.981,2.354,2.354,0,0,1-.231-.981L828.884,5.836V5.664a2.257,2.257,0,0,1,1.288-2.116,3.716,3.716,0,0,1,1.866-.481,3.187,3.187,0,0,1,2.711,1.193A2.266,2.266,0,0,1,835.191,5.836Z" style="fill: #fff"/>
  </g>
  <path d="M994.351,172.081h-83.4v-34.2H930.22V116.54H862.992l-8.948-35.168L928.614,0h49.331V86.586h16.406V116.54H977.945v21.343h16.406ZM887.084,86.586H930.22V40.5Z" style="fill: #ff2ee8"/>
</svg>
